Coordinates
version=1
nRows=24
nColumns=24
inDegrees=yes

Units are S.I. units (second, meters, Newtons, ...)
Angles are in degrees.

endheader
time	pelvis_tilt	pelvis_list	pelvis_rotation	pelvis_tx	pelvis_ty	pelvis_tz	hip_flexion_r	hip_adduction_r	hip_rotation_r	knee_angle_r	ankle_angle_r	subtalar_angle_r	mtp_angle_r	hip_flexion_l	hip_adduction_l	hip_rotation_l	knee_angle_l	ankle_angle_l	subtalar_angle_l	mtp_angle_l	lumbar_extension	lumbar_bending	lumbar_rotation
      4.27500000	     -7.79544206	     -1.19426471	     -6.86474720	     -1.08640203	     -0.04048868	     -0.33481604	     -6.88667804	      2.56446498	      6.69941019	    -21.40598419	      7.52897114	     10.73451151	     18.55771659	     36.22011831	     -3.80470681	      2.04711132	    -14.65082441	      3.67624106	     13.89136433	     -8.95623224	      7.01672103	      1.53699503	      5.44020561
      4.28000000	     -7.83350509	     -0.97996354	     -7.03942605	     -1.07873511	     -0.04148522	     -0.33520600	     -6.88591944	      2.15867459	      6.55720201	    -22.16300523	      6.96090349	     11.31296517	     19.53401286	     36.30679663	     -3.62366862	      1.72832728	    -15.42779391	      2.30670289	     13.38745884	     -7.38744895	      7.17871777	      1.21281612	      5.57237564
      4.28500000	     -7.92797770	     -0.69944672	     -7.17162264	     -1.07097438	     -0.04249531	     -0.33556644	     -6.78205084	      1.69590617	      6.33942353	    -23.03133859	      6.51462407	     12.00948362	     19.87693133	     36.52569089	     -3.38827457	      1.22688256	    -16.41947091	      1.39097088	     13.19686391	     -7.25806556	      7.42746914	      0.79703200	      5.67317137
      4.29000000	     -7.98339011	     -0.48260249	     -7.11618236	     -1.06328142	     -0.04341670	     -0.33630900	     -6.72136359	      1.24845558	      5.76225791	    -23.79642907	      5.67416230	     12.85269016	     21.51136325	     36.69927805	     -3.05803846	      1.11028331	    -17.25046171	     -0.31422748	     12.34444058	     -5.63315028	      7.60233390	      0.42440117	      5.47652919
      4.29500000	     -8.10794285	     -0.24345182	     -7.19087807	     -1.05567030	     -0.04429391	     -0.33682638	     -6.49281649	      0.78779655	      5.32952075	    -24.74636874	      4.94243564	     13.78869738	     22.32650748	     36.99646493	     -2.82670391	      0.70657270	    -18.27182811	     -1.51824324	     11.82532910	     -5.22993050	      7.83587963	      0.04891137	      5.51415687
      4.30000000	     -8.21673045	      0.04260572	     -7.10849605	     -1.04789487	     -0.04506583	     -0.33751448	     -6.32519412	      0.27730839	      4.77700083	    -25.57600930	      3.91709181	     14.55210982	     23.69201121	     37.27374295	     -2.43574203	      0.49665846	    -19.25306743	     -2.87339969	     10.99691395	     -4.73350107	      8.08071859	     -0.41698469	      5.36599156
      4.30500000	     -8.34979216	      0.30660680	     -7.10113518	     -1.04034323	     -0.04577808	     -0.33810520	     -6.01471889	     -0.22230872	      4.25614589	    -26.59366830	      2.89983866	     15.47997458	     24.78492764	     37.59017416	     -2.12020177	      0.28119785	    -20.29078018	     -3.97886222	     10.27740151	     -4.73236651	      8.30178991	     -0.85159837	      5.26374340
      4.31000000	     -8.45108694	      0.59390060	     -6.96366002	     -1.03255449	     -0.04635744	     -0.33885887	     -5.79659872	     -0.76086028	      3.61015213	    -27.46329708	      1.52484790	     16.25439300	     26.43838765	     37.85578623	     -1.67811733	      0.20371167	    -21.31277531	     -5.00008315	      9.42301822	     -4.86568428	      8.52436396	     -1.33299858	      5.08988585
      4.31500000	     -8.63696799	      0.89989200	     -6.90752074	     -1.02483488	     -0.04698965	     -0.33950225	     -5.37465978	     -1.32430764	      3.03873910	    -28.57080128	      0.35173864	     17.31028251	     27.19553194	     38.21073511	     -1.29107907	      0.01711798	    -22.36941349	     -5.74691385	      8.75011670	     -5.20047384	      8.82899150	     -1.81479348	      4.94363805
      4.32000000	     -8.64952068	      1.13481509	     -6.74390943	     -1.01717278	     -0.04733609	     -0.34035550	     -5.16615441	     -1.85442162	      2.32374477	    -29.49925730	     -1.45129765	     18.04287007	     29.37201294	     38.32770897	     -0.82137255	      0.22809700	    -23.35401090	     -6.33378774	      7.84402225	     -5.83282040	      8.90497350	     -2.25009292	      4.74747202
      4.32500000	     -8.82621004	      1.41347184	     -6.58765837	     -1.00944767	     -0.04786907	     -0.34113041	     -4.69529718	     -2.41757747	      1.63524511	    -30.68430441	     -2.89285312	     19.13055203	     30.05747781	     38.62623321	     -0.37562719	      0.22066465	    -24.35270642	     -6.75459987	      7.28185570	     -6.17496524	      9.18076945	     -2.71186566	      4.53568359
      4.33000000	     -8.81862211	      1.65872748	     -6.43092765	     -1.00175510	     -0.04809100	     -0.34201703	     -4.42921522	     -2.98495962	      0.95559059	    -31.69998313	     -4.96302189	     19.77968415	     32.19351102	     38.64484787	      0.12502970	      0.47436438	    -25.26289806	     -6.88753015	      6.52968157	     -6.92196731	      9.23208040	     -3.14327304	      4.35796959
      4.33500000	     -8.94461400	      1.90477592	     -6.25897141	     -0.99414778	     -0.04852205	     -0.34286104	     -3.91463521	     -3.54202290	      0.26814893	    -33.02043098	     -6.60419352	     20.75341831	     32.62549804	     38.81370446	      0.58250790	      0.58437137	    -26.16242171	     -6.95137430	      6.05911828	     -7.09394290	      9.42069133	     -3.56096452	      4.12402004
      4.34000000	     -8.95313705	      2.15846905	     -6.09850160	     -0.98647151	     -0.04864877	     -0.34375653	     -3.55380227	     -4.11751778	     -0.29696111	    -34.13704415	     -8.81701986	     21.33849460	     34.33528759	     38.74785488	      1.10742306	      0.86904855	    -26.92619259	     -6.79494053	      5.40456333	     -7.63041497	      9.49198289	     -3.98730396	      3.95825846
      4.34500000	     -9.06679623	      2.40868571	     -5.90826400	     -0.97888145	     -0.04894496	     -0.34465084	     -2.99105831	     -4.67655400	     -0.86799850	    -35.50492891	    -10.67245404	     22.09737627	     34.61131725	     38.79381494	      1.59762031	      1.00611753	    -27.66960999	     -6.54826074	      5.01459360	     -7.66133557	      9.67063854	     -4.40011915	      3.70258775
      4.35000000	     -9.15495604	      2.69608252	     -5.71672601	     -0.97140120	     -0.04913594	     -0.34553652	     -2.40146387	     -5.26942843	     -1.39198217	    -36.91176968	    -12.62629480	     22.59045084	     34.93075477	     38.74867511	      2.13536871	      1.18352876	    -28.30039798	     -6.21460315	      4.63527227	     -7.68061062	      9.80819277	     -4.84949481	      3.47522852
      4.35500000	     -9.24569348	      2.97610634	     -5.53235264	     -0.96406049	     -0.04928284	     -0.34645537	     -1.75424524	     -5.85172445	     -1.86173967	    -38.36156510	    -14.61997542	     22.90354765	     35.23206114	     38.66721384	      2.66412605	      1.35189965	    -28.86684860	     -5.76502375	      4.31005161	     -7.66576424	      9.93052209	     -5.27291777	      3.26197887
      4.36000000	     -9.33311050	      3.27506240	     -5.34826477	     -0.95685370	     -0.04936637	     -0.34733679	     -1.05213949	     -6.43707752	     -2.27979946	    -39.87849387	    -16.56123509	     22.96977415	     35.22547525	     38.54448178	      3.19077201	      1.44856231	    -29.35807551	     -5.23099726	      4.12546753	     -7.55752411	     10.03491525	     -5.71489596	      3.04557956
      4.36500000	     -9.38765424	      3.60068862	     -5.16234618	     -0.94975650	     -0.04937905	     -0.34821900	     -0.33219816	     -7.05273819	     -2.68979625	    -41.45330674	    -18.40254294	     22.84806993	     34.93222750	     38.35012200	      3.72919223	      1.46382449	    -29.77447504	     -4.62424036	      4.04764241	     -7.33961856	     10.09497639	     -6.17987712	      2.84041914
      4.37000000	     -9.51714238	      3.97218349	     -4.94685309	     -0.94273929	     -0.04937812	     -0.34914211	      0.51535533	     -7.69723651	     -3.06198182	    -43.06220347	    -20.19804018	     22.47789159	     34.51058558	     38.18879213	      4.32116831	      1.49997335	    -30.09040633	     -4.04420420	      3.96381249	     -7.16533123	     10.23630299	     -6.68220337	      2.58128819
      4.37500000	     -9.67212336	      4.36238898	     -4.72411137	     -0.93579698	     -0.04934118	     -0.35010711	      1.43382372	     -8.35512514	     -3.40945658	    -44.69274794	    -21.90044824	     21.86664933	     33.91638371	     38.01502489	      4.92758829	      1.50715295	    -30.32819228	     -3.43493101	      3.90811039	     -6.99367880	     10.40486094	     -7.18996488	      2.30844752
      4.38000000	     -9.99661077	      4.66494884	     -4.49464397	     -0.92910185	     -0.04943869	     -0.35107425	      2.61853144	     -8.87376413	     -3.67586658	    -46.44422750	    -23.31310356	     21.08341656	     32.47381206	     38.02982879	      5.43180883	      1.56158577	    -30.58155896	     -2.76613038	      3.93944425	     -6.98464924	     10.72113158	     -7.57989148	      2.05378304
      4.38500000	    -10.18059496	      5.06296503	     -4.27287015	     -0.92233512	     -0.04927105	     -0.35193301	      3.66221278	     -9.48491428	     -3.89342907	    -48.15351179	    -24.51360046	     20.12361972	     30.80514778	     37.82037362	      6.01114270	      1.50657897	    -30.69396198	     -2.09616128	      4.04331495	     -6.95988247	     10.91142615	     -8.09721975	      1.72798517
      4.39000000	    -10.36911717	      5.44594718	     -4.05281733	     -0.91566840	     -0.04904559	     -0.35281175	      4.74828311	    -10.07570706	     -4.10360736	    -49.83938937	    -25.57317121	     18.94485827	     29.17351918	     37.58630883	      6.57649910	      1.46768868	    -30.74393859	     -1.47241533	      4.11999472	     -6.90957090	     11.09525983	     -8.58406830	      1.43128008
